<svg width="283" height="296" fill="none" xmlns="http://www.w3.org/2000/svg"><path d="M282.286 273.943a3 3 0 00-.343-4.229l-20.571-17.488a3 3 0 10-3.886 4.571l18.285 15.546-15.545 18.285a3 3 0 104.571 3.886l17.489-20.571zM95.646.021C54.102 4.946 25.515 26.245 11.102 55.258c-14.372 28.93-14.476 65.167.12 99.789 29.257 69.4 117.338 132.227 269.021 119.943l-.484-5.98C129.91 281.145 44.737 219.104 16.749 152.716c-14.027-33.273-13.751-67.66-.274-94.789C29.91 30.881 56.644 10.687 96.353 5.98L95.647.021z" fill="#5EBE38"/></svg>