<svg width="283" height="296" viewBox="0 0 283 296" fill="none" xmlns="http://www.w3.org/2000/svg">
<path d="M282.286 273.943C283.359 272.681 283.205 270.788 281.943 269.714L261.372 252.226C260.11 251.153 258.217 251.306 257.144 252.568C256.07 253.831 256.224 255.724 257.486 256.797L275.771 272.343L260.226 290.628C259.153 291.89 259.306 293.783 260.568 294.856C261.831 295.93 263.724 295.776 264.797 294.514L282.286 273.943ZM95.6468 0.0209858C54.101 4.94606 25.5144 26.2455 11.1013 55.2579C-3.27089 84.1881 -3.37547 120.425 11.2202 155.047C40.4775 224.447 128.559 287.274 280.242 274.99L279.758 269.01C129.91 281.145 44.7367 219.104 16.749 152.716C2.72207 119.443 2.99751 85.0561 16.4748 57.9274C29.9113 30.8807 56.6436 10.6866 96.3532 5.97927L95.6468 0.0209858Z" fill="#5EBE38"/>
</svg>
